# xmcd CD database file
#
# Track frame offsets:
#	150
#	3090
#	23296
#	39303
#	69411
#	84778
#	102757
#	132674
#	160488
#	175415
#	201117
#
# Disc length: 2844 seconds
#
# Revision: 0
# Processed by: cddbd v1.5.1PL0 Copyright (c) Steve Scherf et al.
# Submitted via: CDex 1.51
#
DISCID=7c0b1a0b
DTITLE=Adrian Walker - Jingle Jazz
DYEAR=2002
DGENRE=Jazz
TTITLE0=Introduction
TTITLE1=O Come, O Come Emmanuel
TTITLE2=God Rest Ye Merry Gentlemen
TTITLE3=Silent Night
TTITLE4=Psalm 29
TTITLE5=Emmanuel
TTITLE6=Have Yourself A Merry Little Christmas
TTITLE7=We Three Kings
TTITLE8=It Came Upon A Midnight Clear
TTITLE9=O Holy Night
TTITLE10=Away In A Manger
EXTD=YEAR: 2002
EXTT0=
EXTT1=
EXTT2=
EXTT3=
EXTT4=
EXTT5=
EXTT6=
EXTT7=
EXTT8=
EXTT9=
EXTT10=
PLAYORDER=
